# xmcd
#
# Track frame offsets:
#	150
#	17001
#	33350
#	55251
#	75548
#	96280
#	116549
#	137195
#	156694
#	181758
#	200591
#	220157
#	242156
#	261305
#	282864
#	303655
#	322853
#	340832
#
# Disc length: 4786 seconds
#
# Revision: 0
# Processed by: cddbd v1.5.1PL0 Copyright (c) Steve Scherf et al.
# Submitted via: dBpowerAMP V4.0
#
DISCID=0512b012
DTITLE=Various Artist - ajl
DYEAR=1900
DGENRE=Easy Listening
TTITLE0=1 
TTITLE1=1
TTITLE2=1
TTITLE3=1
TTITLE4=1
TTITLE5=1
TTITLE6=1
TTITLE7=1
TTITLE8=1
TTITLE9=1
TTITLE10=1
TTITLE11=1
TTITLE12=1
TTITLE13=1
TTITLE14=1
TTITLE15=1
TTITLE16=1
TTITLE17=1
EXTD=
EXTT0=
EXTT1=
EXTT2=
EXTT3=
EXTT4=
EXTT5=
EXTT6=
EXTT7=
EXTT8=
EXTT9=
EXTT10=
EXTT11=
EXTT12=
EXTT13=
EXTT14=
EXTT15=
EXTT16=
EXTT17=
PLAYORDER=
